MetaBlum1.ufo
<glyph name="A" format="1">
  <advance width="560"/>
  <unicode hex="0041"/>
  <outline>
    <contour>
      <point x="180" y="1600" type="line"/>
      <point x="267" y="1650" type="line"/>
      <point x="267" y="1645" type="line"/>
      <point x="268" y="1643"/>
      <point x="301" y="1284"/>
      <point x="342" y="848" type="curve" smooth="yes"/>
      <point x="383" y="412"/>
      <point x="416" y="54"/>
      <point x="416" y="53" type="curve" smooth="yes"/>
      <point x="417" y="50"/>
      <point x="412" y="48"/>
      <point x="330" y="0" type="curve" smooth="yes"/>
      <point x="282" y="-27"/>
      <point x="243" y="-50"/>
      <point x="243" y="-50" type="curve" smooth="yes"/>
      <point x="242" y="-50"/>
      <point x="228" y="104"/>
      <point x="210" y="293" type="curve" smooth="yes"/>
      <point x="179" y="635" type="line"/>
      <point x="175" y="635" type="line" smooth="yes"/>
      <point x="172" y="635"/>
      <point x="172" y="635"/>
      <point x="172" y="630" type="curve"/>
      <point x="171" y="628"/>
      <point x="159" y="496"/>
      <point x="144" y="338" type="curve" smooth="yes"/>
      <point x="118" y="50" type="line"/>
      <point x="31" y="0" type="line" smooth="yes"/>
      <point x="-45" y="-44"/>
      <point x="-56" y="-49"/>
      <point x="-56" y="-48" type="curve" smooth="yes"/>
      <point x="-56" y="-45"/>
      <point x="91" y="1537"/>
      <point x="93" y="1545" type="curve" smooth="yes"/>
      <point x="94" y="1550" type="line"/>
    </contour>
  </outline>
</glyph>
<glyph name="B" format="1">
  <advance width="680"/>
  <unicode hex="0042"/>
  <outline>
    <contour>
      <point x="106" y="1600" type="line" smooth="yes"/>
      <point x="153" y="1627"/>
      <point x="192" y="1650"/>
      <point x="192" y="1650" type="curve" smooth="yes"/>
      <point x="193" y="1650"/>
      <point x="206" y="1639"/>
      <point x="220" y="1627" type="curve" smooth="yes"/>
      <point x="325" y="1536"/>
      <point x="394" y="1406"/>
      <point x="412" y="1269" type="curve" smooth="yes"/>
      <point x="416" y="1240"/>
      <point x="416" y="1228"/>
      <point x="416" y="1193" type="curve" smooth="yes"/>
      <point x="416" y="1158"/>
      <point x="416" y="1146"/>
      <point x="412" y="1117" type="curve" smooth="yes"/>
      <point x="397" y="1005"/>
      <point x="349" y="898"/>
      <point x="273" y="811" type="curve" smooth="yes"/>
      <point x="253" y="789"/>
      <point x="223" y="760"/>
      <point x="201" y="742" type="curve" smooth="yes"/>
      <point x="194" y="737"/>
      <point x="193" y="736"/>
      <point x="195" y="736" type="curve"/>
      <point x="196" y="735"/>
      <point x="205" y="734"/>
      <point x="214" y="733" type="curve" smooth="yes"/>
      <point x="234" y="730"/>
      <point x="252" y="725"/>
      <point x="272" y="718" type="curve" smooth="yes"/>
      <point x="316" y="703"/>
      <point x="357" y="679"/>
      <point x="393" y="647" type="curve" smooth="yes"/>
      <point x="446" y="600"/>
      <point x="485" y="533"/>
      <point x="501" y="462" type="curve" smooth="yes"/>
      <point x="522" y="367"/>
      <point x="502" y="265"/>
      <point x="446" y="187" type="curve" smooth="yes"/>
      <point x="424" y="156"/>
      <point x="394" y="127"/>
      <point x="362" y="106" type="curve" smooth="yes"/>
      <point x="348" y="96"/>
      <point x="168" y="-8"/>
      <point x="152" y="-15" type="curve"/>
      <point x="131" y="-26"/>
      <point x="109" y="-34"/>
      <point x="86" y="-40" type="curve" smooth="yes"/>
      <point x="67" y="-45"/>
      <point x="54" y="-47"/>
      <point x="25" y="-50" type="curve"/>
      <point x="19" y="-50" type="line"/>
      <point x="19" y="750" type="line"/>
      <point x="20" y="1550" type="line"/>
    </contour>
    <contour>
      <point x="201" y="1307" type="curve" smooth="yes"/>
      <point x="198" y="1316"/>
      <point x="195" y="1324"/>
      <point x="194" y="1325" type="curve" smooth="yes"/>
      <point x="193" y="1326"/>
      <point x="193" y="1256"/>
      <point x="193" y="1093" type="curve" smooth="yes"/>
      <point x="193" y="929"/>
      <point x="193" y="859"/>
      <point x="194" y="860" type="curve" smooth="yes"/>
      <point x="195" y="861"/>
      <point x="198" y="869"/>
      <point x="201" y="878" type="curve" smooth="yes"/>
      <point x="257" y="1016"/>
      <point x="257" y="1169"/>
    </contour>
    <contour>
      <point x="207" y="557" type="curve" smooth="yes"/>
      <point x="201" y="561"/>
      <point x="196" y="566"/>
      <point x="195" y="566" type="curve" smooth="yes"/>
      <point x="193" y="567"/>
      <point x="193" y="554"/>
      <point x="193" y="309" type="curve" smooth="yes"/>
      <point x="193" y="51" type="line"/>
      <point x="204" y="51" type="line"/>
      <point x="215" y="52"/>
      <point x="236" y="55"/>
      <point x="245" y="57" type="curve" smooth="yes"/>
      <point x="250" y="58"/>
      <point x="253" y="62"/>
      <point x="269" y="82" type="curve" smooth="yes"/>
      <point x="303" y="128"/>
      <point x="325" y="183"/>
      <point x="333" y="245" type="curve" smooth="yes"/>
      <point x="335" y="261"/>
      <point x="335" y="305"/>
      <point x="333" y="322" type="curve" smooth="yes"/>
      <point x="322" y="416"/>
      <point x="278" y="498"/>
    </contour>
  </outline>
</glyph>
<glyph name="C" format="1">
  <advance width="650"/>
  <unicode hex="0043"/>
  <outline>
    <contour>
      <point x="296" y="1860" type="curve" smooth="yes"/>
      <point x="307" y="1861"/>
      <point x="321" y="1861"/>
      <point x="335" y="1860" type="curve" smooth="yes"/>
      <point x="422" y="1854"/>
      <point x="499" y="1819"/>
      <point x="560" y="1759" type="curve"/>
      <point x="613" y="1705"/>
      <point x="651" y="1633"/>
      <point x="663" y="1562" type="curve" smooth="yes"/>
      <point x="667" y="1540"/>
      <point x="667" y="1529"/>
      <point x="667" y="1503" type="curve" smooth="yes"/>
      <point x="667" y="1475"/>
      <point x="667" y="1464"/>
      <point x="662" y="1441" type="curve" smooth="yes"/>
      <point x="645" y="1347"/>
      <point x="590" y="1264"/>
      <point x="511" y="1213" type="curve" smooth="yes"/>
      <point x="504" y="1208"/>
      <point x="375" y="1133"/>
      <point x="341" y="1114" type="curve" smooth="yes"/>
      <point x="336" y="1111"/>
      <point x="339" y="1113"/>
      <point x="350" y="1121" type="curve" smooth="yes"/>
      <point x="372" y="1137"/>
      <point x="399" y="1162"/>
      <point x="417" y="1185" type="curve" smooth="yes"/>
      <point x="495" y="1282"/>
      <point x="515" y="1413"/>
      <point x="470" y="1529" type="curve" smooth="yes"/>
      <point x="459" y="1557"/>
      <point x="440" y="1592"/>
      <point x="421" y="1617" type="curve" smooth="yes"/>
      <point x="363" y="1695"/>
      <point x="281" y="1744"/>
      <point x="183" y="1758" type="curve" smooth="yes"/>
      <point x="167" y="1760"/>
      <point x="128" y="1761"/>
      <point x="111" y="1759" type="curve" smooth="yes"/>
      <point x="98" y="1758"/>
      <point x="75" y="1755"/>
      <point x="75" y="1754" type="curve"/>
      <point x="74" y="1754"/>
      <point x="72" y="1750"/>
      <point x="69" y="1747" type="curve" smooth="yes"/>
      <point x="39" y="1709"/>
      <point x="18" y="1659"/>
      <point x="10" y="1611" type="curve" smooth="yes"/>
      <point x="8" y="1597"/>
      <point x="8" y="1560"/>
      <point x="10" y="1545" type="curve" smooth="yes"/>
      <point x="15" y="1501"/>
      <point x="31" y="1455"/>
      <point x="58" y="1402" type="curve" smooth="yes"/>
      <point x="72" y="1375"/>
      <point x="83" y="1355"/>
      <point x="118" y="1297" type="curve"/>
      <point x="150" y="1242"/>
      <point x="159" y="1226"/>
      <point x="172" y="1203" type="curve" smooth="yes"/>
      <point x="214" y="1126"/>
      <point x="242" y="1039"/>
      <point x="254" y="952" type="curve" smooth="yes"/>
      <point x="271" y="826"/>
      <point x="256" y="697"/>
      <point x="210" y="579" type="curve" smooth="yes"/>
      <point x="190" y="529"/>
      <point x="172" y="494"/>
      <point x="119" y="406" type="curve" smooth="yes"/>
      <point x="82" y="345"/>
      <point x="71" y="325"/>
      <point x="56" y="295" type="curve" smooth="yes"/>
      <point x="30" y="243"/>
      <point x="18" y="206"/>
      <point x="11" y="162" type="curve" smooth="yes"/>
      <point x="8" y="144"/>
      <point x="8" y="106"/>
      <point x="10" y="90" type="curve" smooth="yes"/>
      <point x="24" y="3"/>
      <point x="73" y="-71"/>
      <point x="148" y="-116" type="curve" smooth="yes"/>
      <point x="184" y="-137"/>
      <point x="222" y="-150"/>
      <point x="271" y="-158" type="curve" smooth="yes"/>
      <point x="288" y="-160"/>
      <point x="338" y="-160"/>
      <point x="356" y="-158" type="curve" smooth="yes"/>
      <point x="370" y="-156"/>
      <point x="388" y="-152"/>
      <point x="391" y="-151" type="curve" smooth="yes"/>
      <point x="394" y="-150"/>
      <point x="409" y="-132"/>
      <point x="421" y="-117" type="curve" smooth="yes"/>
      <point x="434" y="-99"/>
      <point x="446" y="-80"/>
      <point x="457" y="-57" type="curve" smooth="yes"/>
      <point x="476" y="-20"/>
      <point x="486" y="14"/>
      <point x="492" y="57" type="curve" smooth="yes"/>
      <point x="494" y="73"/>
      <point x="494" y="118"/>
      <point x="492" y="134" type="curve" smooth="yes"/>
      <point x="487" y="176"/>
      <point x="477" y="210"/>
      <point x="461" y="245" type="curve" smooth="yes"/>
      <point x="450" y="267"/>
      <point x="433" y="294"/>
      <point x="417" y="315" type="curve" smooth="yes"/>
      <point x="406" y="329"/>
      <point x="379" y="356"/>
      <point x="365" y="367" type="curve" smooth="yes"/>
      <point x="351" y="378"/>
      <point x="329" y="393"/>
      <point x="314" y="401" type="curve" smooth="yes"/>
      <point x="306" y="405"/>
      <point x="303" y="408"/>
      <point x="304" y="408" type="curve" smooth="yes"/>
      <point x="305" y="409"/>
      <point x="344" y="431"/>
      <point x="391" y="458" type="curve" smooth="yes"/>
      <point x="477" y="508" type="line"/>
      <point x="485" y="503" type="line"/>
      <point x="532" y="478"/>
      <point x="574" y="441"/>
      <point x="605" y="397" type="curve" smooth="yes"/>
      <point x="638" y="350"/>
      <point x="658" y="298"/>
      <point x="666" y="239" type="curve" smooth="yes"/>
      <point x="668" y="220"/>
      <point x="668" y="175"/>
      <point x="666" y="157" type="curve" smooth="yes"/>
      <point x="659" y="105"/>
      <point x="643" y="59"/>
      <point x="615" y="14" type="curve"/>
      <point x="587" y="-33"/>
      <point x="548" y="-74"/>
      <point x="503" y="-103" type="curve" smooth="yes"/>
      <point x="485" y="-115"/>
      <point x="313" y="-214"/>
      <point x="294" y="-224" type="curve" smooth="yes"/>
      <point x="264" y="-239"/>
      <point x="239" y="-247"/>
      <point x="206" y="-254" type="curve" smooth="yes"/>
      <point x="110" y="-273"/>
      <point x="12" y="-251"/>
      <point x="-60" y="-193" type="curve" smooth="yes"/>
      <point x="-73" y="-182"/>
      <point x="-92" y="-163"/>
      <point x="-103" y="-151" type="curve"/>
      <point x="-135" y="-110"/>
      <point x="-157" y="-59"/>
      <point x="-164" y="-8" type="curve" smooth="yes"/>
      <point x="-166" y="8"/>
      <point x="-166" y="45"/>
      <point x="-163" y="63" type="curve" smooth="yes"/>
      <point x="-158" y="99"/>
      <point x="-147" y="131"/>
      <point x="-128" y="173" type="curve" smooth="yes"/>
      <point x="-113" y="207"/>
      <point x="-97" y="236"/>
      <point x="-54" y="307" type="curve" smooth="yes"/>
      <point x="8" y="411"/>
      <point x="28" y="452"/>
      <point x="51" y="521" type="curve" smooth="yes"/>
      <point x="111" y="706"/>
      <point x="96" y="908"/>
      <point x="8" y="1083" type="curve" smooth="yes"/>
      <point x="-7" y="1112"/>
      <point x="-15" y="1127"/>
      <point x="-55" y="1193" type="curve" smooth="yes"/>
      <point x="-92" y="1255"/>
      <point x="-102" y="1273"/>
      <point x="-117" y="1304" type="curve" smooth="yes"/>
      <point x="-132" y="1333"/>
      <point x="-139" y="1351"/>
      <point x="-147" y="1374" type="curve" smooth="yes"/>
      <point x="-173" y="1448"/>
      <point x="-172" y="1511"/>
      <point x="-145" y="1576" type="curve" smooth="yes"/>
      <point x="-123" y="1631"/>
      <point x="-86" y="1676"/>
      <point x="-37" y="1709" type="curve" smooth="yes"/>
      <point x="-22" y="1719"/>
      <point x="157" y="1821"/>
      <point x="173" y="1829" type="curve" smooth="yes"/>
      <point x="210" y="1847"/>
      <point x="250" y="1858"/>
    </contour>
    <contour>
      <point x="332" y="1109" type="curve" smooth="yes"/>
      <point x="334" y="1111"/>
      <point x="335" y="1111"/>
      <point x="335" y="1111" type="curve" smooth="yes"/>
      <point x="335" y="1110"/>
      <point x="334" y="1110"/>
      <point x="333" y="1109" type="curve" smooth="yes"/>
      <point x="331" y="1108"/>
      <point x="331" y="1108"/>
    </contour>
    <contour>
      <point x="327" y="1106" type="curve"/>
      <point x="330" y="1108" type="line" smooth="yes"/>
      <point x="330" y="1107"/>
      <point x="329" y="1106"/>
      <point x="327" y="1106" type="curve"/>
      <point x="323" y="1104"/>
      <point x="323" y="1104"/>
    </contour>
    <contour>
      <point x="320" y="1102" type="curve"/>
      <point x="323" y="1104" type="line" smooth="yes"/>
      <point x="323" y="1103"/>
      <point x="322" y="1102"/>
      <point x="320" y="1102" type="curve"/>
      <point x="316" y="1100"/>
      <point x="316" y="1100"/>
    </contour>
  </outline>
</glyph>
<glyph name="D" format="1">
  <advance width="695"/>
  <unicode hex="0044"/>
  <outline>
    <contour>
      <point x="106" y="1600" type="line" smooth="yes"/>
      <point x="153" y="1627"/>
      <point x="192" y="1650"/>
      <point x="192" y="1650" type="curve" smooth="yes"/>
      <point x="193" y="1650"/>
      <point x="199" y="1643"/>
      <point x="206" y="1635" type="curve" smooth="yes"/>
      <point x="372" y="1441"/>
      <point x="474" y="1197"/>
      <point x="493" y="941" type="curve" smooth="yes"/>
      <point x="506" y="774"/>
      <point x="484" y="604"/>
      <point x="428" y="447" type="curve" smooth="yes"/>
      <point x="378" y="307"/>
      <point x="305" y="181"/>
      <point x="207" y="67" type="curve"/>
      <point x="193" y="51" type="line"/>
      <point x="106" y="1" type="line" smooth="yes"/>
      <point x="59" y="-27"/>
      <point x="20" y="-49"/>
      <point x="20" y="-49" type="curve" smooth="yes"/>
      <point x="19" y="-49"/>
      <point x="19" y="311"/>
      <point x="19" y="751" type="curve" smooth="yes"/>
      <point x="20" y="1550" type="line"/>
    </contour>
    <contour>
      <point x="214" y="1248" type="curve" smooth="yes"/>
      <point x="209" y="1260"/>
      <point x="202" y="1274"/>
      <point x="199" y="1281" type="curve" smooth="yes"/>
      <point x="193" y="1293" type="line"/>
      <point x="193" y="749" type="line"/>
      <point x="193" y="206" type="line"/>
      <point x="199" y="217" type="line" smooth="yes"/>
      <point x="207" y="233"/>
      <point x="221" y="264"/>
      <point x="231" y="288" type="curve" smooth="yes"/>
      <point x="326" y="515"/>
      <point x="348" y="767"/>
      <point x="294" y="1009" type="curve" smooth="yes"/>
      <point x="276" y="1091"/>
      <point x="250" y="1171"/>
    </contour>
  </outline>
</glyph>
<glyph name="E" format="1">
  <advance width="665"/>
  <unicode hex="0045"/>
  <outline>
    <contour>
      <point x="106" y="1601" type="line"/>
      <point x="193" y="1651" type="line"/>
      <point x="342" y="1651" type="line" smooth="yes"/>
      <point x="489" y="1651"/>
      <point x="491" y="1651"/>
      <point x="489" y="1649" type="curve" smooth="yes"/>
      <point x="487" y="1648"/>
      <point x="448" y="1625"/>
      <point x="401" y="1599" type="curve"/>
      <point x="317" y="1550" type="line"/>
      <point x="255" y="1550" type="line"/>
      <point x="193" y="1550" type="line"/>
      <point x="193" y="1143" type="line"/>
      <point x="193" y="736" type="line"/>
      <point x="305" y="736" type="line"/>
      <point x="417" y="736" type="line"/>
      <point x="330" y="685" type="line"/>
      <point x="243" y="635" type="line"/>
      <point x="218" y="635" type="line"/>
      <point x="193" y="635" type="line"/>
      <point x="193" y="343" type="line"/>
      <point x="193" y="51" type="line"/>
      <point x="342" y="51" type="line"/>
      <point x="491" y="51" type="line"/>
      <point x="404" y="0" type="line"/>
      <point x="317" y="-50" type="line"/>
      <point x="168" y="-50" type="line"/>
      <point x="19" y="-50" type="line"/>
      <point x="19" y="750" type="line"/>
      <point x="19" y="1551" type="line"/>
    </contour>
  </outline>
</glyph>
<glyph name="F" format="1">
  <advance width="665"/>
  <unicode hex="0046"/>
  <outline>
    <contour>
      <point x="106" y="1601" type="line"/>
      <point x="193" y="1651" type="line"/>
      <point x="342" y="1651" type="line" smooth="yes"/>
      <point x="489" y="1651"/>
      <point x="491" y="1651"/>
      <point x="489" y="1649" type="curve" smooth="yes"/>
      <point x="487" y="1648"/>
      <point x="448" y="1625"/>
      <point x="401" y="1599" type="curve"/>
      <point x="317" y="1550" type="line"/>
      <point x="255" y="1550" type="line"/>
      <point x="193" y="1550" type="line"/>
      <point x="193" y="1143" type="line"/>
      <point x="193" y="736" type="line"/>
      <point x="305" y="736" type="line"/>
      <point x="417" y="736" type="line"/>
      <point x="330" y="685" type="line"/>
      <point x="243" y="635" type="line"/>
      <point x="218" y="635" type="line"/>
      <point x="193" y="635" type="line"/>
      <point x="193" y="343" type="line"/>
      <point x="193" y="50" type="line"/>
      <point x="107" y="0" type="line" smooth="yes"/>
      <point x="59" y="-27"/>
      <point x="20" y="-49"/>
      <point x="20" y="-50" type="curve"/>
      <point x="19" y="-50"/>
      <point x="19" y="310"/>
      <point x="19" y="750" type="curve" smooth="yes"/>
      <point x="19" y="1551" type="line"/>
    </contour>
  </outline>
</glyph>
<glyph name="G" format="1">
  <advance width="665"/>
  <unicode hex="0047"/>
  <outline>
    <contour>
      <point x="333" y="1650" type="curve" smooth="yes"/>
      <point x="341" y="1651"/>
      <point x="356" y="1651"/>
      <point x="368" y="1650" type="curve" smooth="yes"/>
      <point x="421" y="1646"/>
      <point x="467" y="1626"/>
      <point x="507" y="1593" type="curve"/>
      <point x="553" y="1553"/>
      <point x="583" y="1496"/>
      <point x="592" y="1431" type="curve" smooth="yes"/>
      <point x="594" y="1417"/>
      <point x="594" y="1379"/>
      <point x="592" y="1365" type="curve" smooth="yes"/>
      <point x="584" y="1312"/>
      <point x="561" y="1267"/>
      <point x="525" y="1231" type="curve" smooth="yes"/>
      <point x="513" y="1219"/>
      <point x="502" y="1210"/>
      <point x="488" y="1200" type="curve" smooth="yes"/>
      <point x="483" y="1197"/>
      <point x="443" y="1173"/>
      <point x="399" y="1148" type="curve" smooth="yes"/>
      <point x="355" y="1123"/>
      <point x="318" y="1101"/>
      <point x="316" y="1100" type="curve" smooth="yes"/>
      <point x="311" y="1097"/>
      <point x="313" y="1099"/>
      <point x="325" y="1107" type="curve"/>
      <point x="337" y="1117"/>
      <point x="354" y="1133"/>
      <point x="364" y="1145" type="curve" smooth="yes"/>
      <point x="393" y="1179"/>
      <point x="411" y="1219"/>
      <point x="418" y="1265" type="curve" smooth="yes"/>
      <point x="420" y="1280"/>
      <point x="420" y="1318"/>
      <point x="418" y="1333" type="curve" smooth="yes"/>
      <point x="408" y="1394"/>
      <point x="383" y="1444"/>
      <point x="341" y="1484" type="curve" smooth="yes"/>
      <point x="303" y="1521"/>
      <point x="257" y="1542"/>
      <point x="203" y="1549" type="curve" smooth="yes"/>
      <point x="190" y="1550"/>
      <point x="162" y="1550"/>
      <point x="149" y="1549" type="curve"/>
      <point x="142" y="1549" type="line"/>
      <point x="138" y="1543" type="line"/>
      <point x="129" y="1526"/>
      <point x="119" y="1494"/>
      <point x="115" y="1469" type="curve" smooth="yes"/>
      <point x="104" y="1403"/>
      <point x="108" y="1324"/>
      <point x="128" y="1195" type="curve" smooth="yes"/>
      <point x="130" y="1182"/>
      <point x="136" y="1140"/>
      <point x="143" y="1102" type="curve" smooth="yes"/>
      <point x="164" y="974"/>
      <point x="170" y="928"/>
      <point x="175" y="867" type="curve" smooth="yes"/>
      <point x="181" y="795"/>
      <point x="180" y="744"/>
      <point x="172" y="663" type="curve" smooth="yes"/>
      <point x="172" y="654"/>
      <point x="171" y="647"/>
      <point x="171" y="646" type="curve" smooth="yes"/>
      <point x="248" y="690" type="line" smooth="yes"/>
      <point x="290" y="714"/>
      <point x="325" y="735"/>
      <point x="326" y="735" type="curve" smooth="yes"/>
      <point x="329" y="735"/>
      <point x="356" y="703"/>
      <point x="380" y="672" type="curve"/>
      <point x="432" y="601"/>
      <point x="477" y="519"/>
      <point x="498" y="452" type="curve"/>
      <point x="526" y="368"/>
      <point x="529" y="282"/>
      <point x="509" y="209" type="curve" smooth="yes"/>
      <point x="493" y="152"/>
      <point x="460" y="104"/>
      <point x="420" y="79" type="curve" smooth="yes"/>
      <point x="407" y="70"/>
      <point x="234" y="-29"/>
      <point x="227" y="-33" type="curve" smooth="yes"/>
      <point x="198" y="-46"/>
      <point x="165" y="-52"/>
      <point x="129" y="-49" type="curve" smooth="yes"/>
      <point x="109" y="-48"/>
      <point x="93" y="-45"/>
      <point x="79" y="-40" type="curve" smooth="yes"/>
      <point x="13" y="-18"/>
      <point x="-22" y="38"/>
      <point x="-32" y="139" type="curve" smooth="yes"/>
      <point x="-34" y="161"/>
      <point x="-34" y="210"/>
      <point x="-33" y="241" type="curve" smooth="yes"/>
      <point x="-31" y="291"/>
      <point x="-27" y="332"/>
      <point x="-14" y="446" type="curve" smooth="yes"/>
      <point x="-4" y="535"/>
      <point x="0" y="572"/>
      <point x="3" y="622" type="curve" smooth="yes"/>
      <point x="5" y="644"/>
      <point x="5" y="713"/>
      <point x="3" y="738" type="curve" smooth="yes"/>
      <point x="-2" y="811"/>
      <point x="-8" y="860"/>
      <point x="-31" y="1001" type="curve" smooth="yes"/>
      <point x="-53" y="1130"/>
      <point x="-58" y="1172"/>
      <point x="-63" y="1234" type="curve" smooth="yes"/>
      <point x="-65" y="1260"/>
      <point x="-65" y="1321"/>
      <point x="-63" y="1341" type="curve" smooth="yes"/>
      <point x="-58" y="1381"/>
      <point x="-50" y="1413"/>
      <point x="-37" y="1440" type="curve" smooth="yes"/>
      <point x="-23" y="1468"/>
      <point x="-3" y="1492"/>
      <point x="22" y="1509" type="curve" smooth="yes"/>
      <point x="34" y="1517"/>
      <point x="211" y="1619"/>
      <point x="224" y="1625" type="curve" smooth="yes"/>
      <point x="249" y="1637"/>
      <point x="283" y="1646"/>
      <point x="317" y="1649" type="curve" smooth="yes"/>
      <point x="324" y="1650"/>
      <point x="331" y="1650"/>
    </contour>
    <contour>
      <point x="196" y="584" type="curve" smooth="yes"/>
      <point x="185" y="598"/>
      <point x="168" y="618"/>
      <point x="168" y="618" type="curve" smooth="yes"/>
      <point x="168" y="617"/>
      <point x="166" y="597"/>
      <point x="163" y="573" type="curve" smooth="yes"/>
      <point x="143" y="400"/>
      <point x="141" y="368"/>
      <point x="141" y="303" type="curve"/>
      <point x="140" y="260"/>
      <point x="141" y="246"/>
      <point x="145" y="218" type="curve" smooth="yes"/>
      <point x="156" y="142"/>
      <point x="184" y="93"/>
      <point x="233" y="69" type="curve" smooth="yes"/>
      <point x="239" y="66"/>
      <point x="249" y="62"/>
      <point x="254" y="60" type="curve" smooth="yes"/>
      <point x="268" y="55"/>
      <point x="294" y="51"/>
      <point x="307" y="51" type="curve" smooth="yes"/>
      <point x="312" y="51" type="line"/>
      <point x="317" y="60" type="line"/>
      <point x="355" y="137"/>
      <point x="358" y="249"/>
      <point x="324" y="353" type="curve" smooth="yes"/>
      <point x="301" y="422"/>
      <point x="251" y="513"/>
    </contour>
  </outline>
</glyph>
<glyph name="H" format="1">
  <advance width="710"/>
  <unicode hex="0048"/>
  <outline>
    <contour>
      <point x="106" y="1600" type="line"/>
      <point x="193" y="1650" type="line"/>
      <point x="193" y="1193" type="line"/>
      <point x="193" y="736" type="line"/>
      <point x="256" y="736" type="line"/>
      <point x="318" y="736" type="line"/>
      <point x="318" y="1143" type="line"/>
      <point x="318" y="1550" type="line"/>
      <point x="404" y="1600" type="line" smooth="yes"/>
      <point x="452" y="1627"/>
      <point x="491" y="1649"/>
      <point x="491" y="1650" type="curve"/>
      <point x="492" y="1650"/>
      <point x="492" y="1290"/>
      <point x="492" y="850" type="curve" smooth="yes"/>
      <point x="492" y="50" type="line"/>
      <point x="405" y="0" type="line"/>
      <point x="319" y="-50" type="line"/>
      <point x="318" y="293" type="line"/>
      <point x="318" y="635" type="line"/>
      <point x="255" y="635" type="line"/>
      <point x="193" y="635" type="line"/>
      <point x="193" y="343" type="line"/>
      <point x="193" y="50" type="line"/>
      <point x="107" y="0" type="line" smooth="yes"/>
      <point x="59" y="-27"/>
      <point x="20" y="-49"/>
      <point x="20" y="-50" type="curve"/>
      <point x="19" y="-50"/>
      <point x="19" y="310"/>
      <point x="19" y="750" type="curve" smooth="yes"/>
      <point x="19" y="1550" type="line"/>
    </contour>
  </outline>
</glyph>
<glyph name="I" format="1">
  <advance width="210"/>
  <unicode hex="0049"/>
  <outline>
    <contour>
      <point x="31" y="1601" type="line"/>
      <point x="118" y="1651" type="line"/>
      <point x="267" y="1651" type="line"/>
      <point x="417" y="1651" type="line"/>
      <point x="376" y="1627" type="line" smooth="yes"/>
      <point x="354" y="1614"/>
      <point x="320" y="1595"/>
      <point x="302" y="1584" type="curve" smooth="yes"/>
      <point x="268" y="1564" type="line"/>
      <point x="267" y="808" type="line"/>
      <point x="267" y="51" type="line"/>
      <point x="342" y="51" type="line"/>
      <point x="417" y="51" type="line"/>
      <point x="330" y="0" type="line"/>
      <point x="243" y="-50" type="line"/>
      <point x="93" y="-50" type="line" smooth="yes"/>
      <point x="-4" y="-50"/>
      <point x="-56" y="-50"/>
      <point x="-55" y="-49" type="curve" smooth="yes"/>
      <point x="-54" y="-48"/>
      <point x="-21" y="-29"/>
      <point x="20" y="-6" type="curve" smooth="yes"/>
      <point x="93" y="37" type="line"/>
      <point x="93" y="793" type="line"/>
      <point x="93" y="1550" type="line"/>
      <point x="18" y="1550" type="line"/>
      <point x="-56" y="1551" type="line"/>
    </contour>
  </outline>
</glyph>
<glyph name="J" format="1">
  <advance width="620"/>
  <unicode hex="004A"/>
  <outline>
    <contour>
      <point x="31" y="1601" type="line"/>
      <point x="118" y="1651" type="line"/>
      <point x="267" y="1651" type="line"/>
      <point x="417" y="1651" type="line"/>
      <point x="417" y="1193" type="line"/>
      <point x="417" y="736" type="line"/>
      <point x="426" y="732" type="line" smooth="yes"/>
      <point x="460" y="716"/>
      <point x="498" y="689"/>
      <point x="527" y="661" type="curve"/>
      <point x="583" y="604"/>
      <point x="616" y="535"/>
      <point x="625" y="452" type="curve" smooth="yes"/>
      <point x="627" y="435"/>
      <point x="627" y="389"/>
      <point x="625" y="371" type="curve" smooth="yes"/>
      <point x="615" y="290"/>
      <point x="583" y="219"/>
      <point x="530" y="161" type="curve" smooth="yes"/>
      <point x="511" y="141"/>
      <point x="484" y="118"/>
      <point x="462" y="104" type="curve" smooth="yes"/>
      <point x="453" y="98"/>
      <point x="287" y="2"/>
      <point x="268" y="-8" type="curve" smooth="yes"/>
      <point x="213" y="-39"/>
      <point x="139" y="-54"/>
      <point x="71" y="-50" type="curve" smooth="yes"/>
      <point x="17" y="-47"/>
      <point x="-27" y="-35"/>
      <point x="-72" y="-13" type="curve" smooth="yes"/>
      <point x="-124" y="13"/>
      <point x="-168" y="52"/>
      <point x="-201" y="101" type="curve" smooth="yes"/>
      <point x="-235" y="151"/>
      <point x="-256" y="208"/>
      <point x="-264" y="270" type="curve" smooth="yes"/>
      <point x="-266" y="290"/>
      <point x="-266" y="336"/>
      <point x="-264" y="356" type="curve" smooth="yes"/>
      <point x="-254" y="433"/>
      <point x="-225" y="497"/>
      <point x="-174" y="552" type="curve" smooth="yes"/>
      <point x="-164" y="563"/>
      <point x="-148" y="578"/>
      <point x="-134" y="589" type="curve" smooth="yes"/>
      <point x="-118" y="602"/>
      <point x="-95" y="615"/>
      <point x="-4" y="668" type="curve" smooth="yes"/>
      <point x="94" y="724"/>
      <point x="107" y="731"/>
      <point x="108" y="731" type="curve"/>
      <point x="108" y="730"/>
      <point x="95" y="723"/>
      <point x="80" y="714" type="curve" smooth="yes"/>
      <point x="44" y="693"/>
      <point x="29" y="682"/>
      <point x="5" y="657" type="curve" smooth="yes"/>
      <point x="-48" y="603"/>
      <point x="-79" y="536"/>
      <point x="-90" y="456" type="curve" smooth="yes"/>
      <point x="-92" y="436"/>
      <point x="-92" y="391"/>
      <point x="-90" y="371" type="curve" smooth="yes"/>
      <point x="-70" y="206"/>
      <point x="44" y="82"/>
      <point x="200" y="56" type="curve" smooth="yes"/>
      <point x="225" y="51"/>
      <point x="235" y="50"/>
      <point x="269" y="51" type="curve" smooth="yes"/>
      <point x="303" y="51"/>
      <point x="313" y="51"/>
      <point x="341" y="56" type="curve" smooth="yes"/>
      <point x="355" y="59" type="line"/>
      <point x="358" y="63" type="line"/>
      <point x="366" y="71"/>
      <point x="381" y="91"/>
      <point x="387" y="100" type="curve" smooth="yes"/>
      <point x="422" y="151"/>
      <point x="444" y="210"/>
      <point x="451" y="276" type="curve" smooth="yes"/>
      <point x="453" y="290"/>
      <point x="453" y="336"/>
      <point x="451" y="351" type="curve" smooth="yes"/>
      <point x="445" y="404"/>
      <point x="430" y="451"/>
      <point x="404" y="495" type="curve" smooth="yes"/>
      <point x="370" y="551"/>
      <point x="316" y="600"/>
      <point x="254" y="630" type="curve"/>
      <point x="243" y="635" type="line"/>
      <point x="243" y="1093" type="line"/>
      <point x="243" y="1550" type="line"/>
      <point x="93" y="1550" type="line"/>
      <point x="-56" y="1551" type="line"/>
    </contour>
  </outline>
</glyph>
<glyph name="K" format="1">
  <advance width="635"/>
  <unicode hex="004B"/>
  <outline>
    <contour>
      <point x="106" y="1600" type="line"/>
      <point x="193" y="1650" type="line"/>
      <point x="193" y="1410" type="line"/>
      <point x="194" y="1171" type="line"/>
      <point x="255" y="1360" type="line"/>
      <point x="317" y="1550" type="line"/>
      <point x="404" y="1600" type="line" smooth="yes"/>
      <point x="452" y="1627"/>
      <point x="491" y="1650"/>
      <point x="491" y="1649" type="curve" smooth="yes"/>
      <point x="491" y="1649"/>
      <point x="424" y="1444"/>
      <point x="342" y="1193" type="curve" smooth="yes"/>
      <point x="260" y="942"/>
      <point x="193" y="737"/>
      <point x="193" y="736" type="curve" smooth="yes"/>
      <point x="193" y="735"/>
      <point x="260" y="581"/>
      <point x="342" y="393" type="curve" smooth="yes"/>
      <point x="435" y="181"/>
      <point x="491" y="51"/>
      <point x="490" y="50" type="curve" smooth="yes"/>
      <point x="489" y="49"/>
      <point x="318" y="-50"/>
      <point x="318" y="-50" type="curve" smooth="yes"/>
      <point x="317" y="-50"/>
      <point x="289" y="14"/>
      <point x="255" y="92" type="curve" smooth="yes"/>
      <point x="194" y="234" type="line"/>
      <point x="193" y="142" type="line"/>
      <point x="193" y="50" type="line"/>
      <point x="107" y="0" type="line" smooth="yes"/>
      <point x="59" y="-27"/>
      <point x="20" y="-49"/>
      <point x="20" y="-50" type="curve"/>
      <point x="19" y="-50"/>
      <point x="19" y="310"/>
      <point x="19" y="750" type="curve" smooth="yes"/>
      <point x="19" y="1550" type="line"/>
    </contour>
  </outline>
</glyph>
<glyph name="L" format="1">
  <advance width="635"/>
  <unicode hex="004C"/>
  <outline>
    <contour>
      <point x="106" y="1600" type="line"/>
      <point x="193" y="1650" type="line"/>
      <point x="193" y="850" type="line"/>
      <point x="193" y="51" type="line"/>
      <point x="342" y="51" type="line"/>
      <point x="491" y="51" type="line"/>
      <point x="404" y="0" type="line"/>
      <point x="317" y="-50" type="line"/>
      <point x="168" y="-50" type="line"/>
      <point x="19" y="-50" type="line"/>
      <point x="19" y="750" type="line"/>
      <point x="19" y="1550" type="line"/>
    </contour>
  </outline>
</glyph>
<glyph name="M" format="1">
  <advance width="810"/>
  <unicode hex="004D"/>
  <outline>
    <contour>
      <point x="106" y="1600" type="line" smooth="yes"/>
      <point x="177" y="1641"/>
      <point x="193" y="1650"/>
      <point x="193" y="1648" type="curve" smooth="yes"/>
      <point x="193" y="1647"/>
      <point x="209" y="1550"/>
      <point x="229" y="1433" type="curve"/>
      <point x="248" y="1315"/>
      <point x="264" y="1219"/>
      <point x="264" y="1219" type="curve" smooth="yes"/>
      <point x="264" y="1220"/>
      <point x="276" y="1293"/>
      <point x="291" y="1382" type="curve" smooth="yes"/>
      <point x="305" y="1471"/>
      <point x="317" y="1546"/>
      <point x="318" y="1547" type="curve"/>
      <point x="318" y="1550"/>
      <point x="329" y="1556"/>
      <point x="404" y="1600" type="curve"/>
      <point x="452" y="1627"/>
      <point x="491" y="1649"/>
      <point x="491" y="1650" type="curve"/>
      <point x="492" y="1650"/>
      <point x="492" y="1290"/>
      <point x="492" y="850" type="curve" smooth="yes"/>
      <point x="492" y="50" type="line"/>
      <point x="405" y="0" type="line"/>
      <point x="319" y="-50" type="line"/>
      <point x="318" y="336" type="line" smooth="yes"/>
      <point x="318" y="580"/>
      <point x="318" y="721"/>
      <point x="317" y="721" type="curve" smooth="yes"/>
      <point x="317" y="721"/>
      <point x="288" y="705"/>
      <point x="255" y="685" type="curve"/>
      <point x="193" y="650" type="line"/>
      <point x="193" y="350" type="line"/>
      <point x="193" y="50" type="line"/>
      <point x="107" y="0" type="line" smooth="yes"/>
      <point x="59" y="-27"/>
      <point x="20" y="-49"/>
      <point x="20" y="-50" type="curve"/>
      <point x="19" y="-50"/>
      <point x="19" y="310"/>
      <point x="19" y="750" type="curve" smooth="yes"/>
      <point x="19" y="1550" type="line"/>
    </contour>
  </outline>
</glyph>
<glyph name="N" format="1">
  <advance width="710"/>
  <unicode hex="004E"/>
  <outline>
    <contour>
      <point x="106" y="1600" type="line" smooth="yes"/>
      <point x="163" y="1633"/>
      <point x="193" y="1650"/>
      <point x="193" y="1649" type="curve" smooth="yes"/>
      <point x="193" y="1648"/>
      <point x="222" y="1498"/>
      <point x="256" y="1316" type="curve" smooth="yes"/>
      <point x="318" y="984" type="line"/>
      <point x="318" y="1267" type="line"/>
      <point x="318" y="1550" type="line"/>
      <point x="404" y="1600" type="line" smooth="yes"/>
      <point x="452" y="1627"/>
      <point x="491" y="1649"/>
      <point x="491" y="1650" type="curve"/>
      <point x="492" y="1650"/>
      <point x="492" y="1290"/>
      <point x="492" y="850" type="curve" smooth="yes"/>
      <point x="492" y="50" type="line"/>
      <point x="405" y="0" type="line" smooth="yes"/>
      <point x="348" y="-33"/>
      <point x="318" y="-50"/>
      <point x="318" y="-49" type="curve" smooth="yes"/>
      <point x="318" y="-48"/>
      <point x="289" y="102"/>
      <point x="255" y="284" type="curve" smooth="yes"/>
      <point x="194" y="616" type="line"/>
      <point x="193" y="333" type="line"/>
      <point x="193" y="50" type="line"/>
      <point x="107" y="0" type="line" smooth="yes"/>
      <point x="59" y="-27"/>
      <point x="20" y="-49"/>
      <point x="20" y="-50" type="curve"/>
      <point x="19" y="-50"/>
      <point x="19" y="310"/>
      <point x="19" y="750" type="curve" smooth="yes"/>
      <point x="19" y="1550" type="line"/>
    </contour>
  </outline>
</glyph>
<glyph name="O" format="1">
  <advance width="680"/>
  <unicode hex="004F"/>
  <outline>
    <contour>
      <point x="315" y="1713" type="curve" smooth="yes"/>
      <point x="321" y="1714"/>
      <point x="333" y="1714"/>
      <point x="345" y="1713" type="curve" smooth="yes"/>
      <point x="438" y="1705"/>
      <point x="513" y="1637"/>
      <point x="534" y="1542" type="curve" smooth="yes"/>
      <point x="544" y="1500"/>
      <point x="543" y="1448"/>
      <point x="532" y="1391" type="curve" smooth="yes"/>
      <point x="524" y="1345"/>
      <point x="511" y="1298"/>
      <point x="483" y="1213" type="curve" smooth="yes"/>
      <point x="467" y="1164"/>
      <point x="462" y="1146"/>
      <point x="453" y="1115" type="curve" smooth="yes"/>
      <point x="434" y="1044"/>
      <point x="421" y="969"/>
      <point x="416" y="904" type="curve" smooth="yes"/>
      <point x="404" y="765"/>
      <point x="421" y="641"/>
      <point x="468" y="526" type="curve" smooth="yes"/>
      <point x="478" y="504"/>
      <point x="502" y="456"/>
      <point x="521" y="422" type="curve" smooth="yes"/>
      <point x="530" y="406"/>
      <point x="545" y="380"/>
      <point x="554" y="364" type="curve" smooth="yes"/>
      <point x="599" y="284"/>
      <point x="619" y="238"/>
      <point x="632" y="189" type="curve" smooth="yes"/>
      <point x="647" y="129"/>
      <point x="645" y="76"/>
      <point x="625" y="19" type="curve" smooth="yes"/>
      <point x="603" y="-47"/>
      <point x="563" y="-100"/>
      <point x="509" y="-137" type="curve" smooth="yes"/>
      <point x="495" y="-146"/>
      <point x="316" y="-250"/>
      <point x="298" y="-259" type="curve" smooth="yes"/>
      <point x="240" y="-288"/>
      <point x="170" y="-299"/>
      <point x="104" y="-289" type="curve" smooth="yes"/>
      <point x="-5" y="-272"/>
      <point x="-94" y="-205"/>
      <point x="-136" y="-105" type="curve" smooth="yes"/>
      <point x="-147" y="-80"/>
      <point x="-156" y="-48"/>
      <point x="-160" y="-23" type="curve" smooth="yes"/>
      <point x="-162" y="-6"/>
      <point x="-162" y="32"/>
      <point x="-160" y="50" type="curve" smooth="yes"/>
      <point x="-153" y="97"/>
      <point x="-138" y="140"/>
      <point x="-109" y="197" type="curve" smooth="yes"/>
      <point x="-98" y="220"/>
      <point x="-86" y="241"/>
      <point x="-61" y="286" type="curve" smooth="yes"/>
      <point x="-27" y="346"/>
      <point x="-13" y="372"/>
      <point x="0" y="400" type="curve" smooth="yes"/>
      <point x="47" y="502"/>
      <point x="70" y="615"/>
      <point x="68" y="738" type="curve" smooth="yes"/>
      <point x="67" y="783"/>
      <point x="64" y="819"/>
      <point x="57" y="864" type="curve" smooth="yes"/>
      <point x="46" y="943"/>
      <point x="29" y="1013"/>
      <point x="-1" y="1106" type="curve" smooth="yes"/>
      <point x="-38" y="1218"/>
      <point x="-52" y="1273"/>
      <point x="-59" y="1333" type="curve" smooth="yes"/>
      <point x="-61" y="1351"/>
      <point x="-61" y="1397"/>
      <point x="-59" y="1413" type="curve" smooth="yes"/>
      <point x="-53" y="1459"/>
      <point x="-39" y="1497"/>
      <point x="-15" y="1528" type="curve" smooth="yes"/>
      <point x="1" y="1548"/>
      <point x="17" y="1564"/>
      <point x="36" y="1577" type="curve" smooth="yes"/>
      <point x="47" y="1585"/>
      <point x="222" y="1685"/>
      <point x="236" y="1692" type="curve" smooth="yes"/>
      <point x="255" y="1702"/>
      <point x="281" y="1710"/>
      <point x="301" y="1712" type="curve" smooth="yes"/>
      <point x="307" y="1713"/>
      <point x="313" y="1713"/>
    </contour>
    <contour>
      <point x="180" y="1611" type="curve" smooth="yes"/>
      <point x="173" y="1612"/>
      <point x="163" y="1613"/>
      <point x="158" y="1613" type="curve" smooth="yes"/>
      <point x="148" y="1613" type="line"/>
      <point x="143" y="1604" type="line" smooth="yes"/>
      <point x="129" y="1578"/>
      <point x="119" y="1548"/>
      <point x="115" y="1513" type="curve" smooth="yes"/>
      <point x="113" y="1498"/>
      <point x="113" y="1453"/>
      <point x="115" y="1434" type="curve" smooth="yes"/>
      <point x="121" y="1380"/>
      <point x="135" y="1324"/>
      <point x="164" y="1235" type="curve" smooth="yes"/>
      <point x="184" y="1173"/>
      <point x="187" y="1164"/>
      <point x="194" y="1140" type="curve" smooth="yes"/>
      <point x="224" y="1036"/>
      <point x="239" y="938"/>
      <point x="242" y="843" type="curve" smooth="yes"/>
      <point x="242" y="827"/>
      <point x="243" y="816"/>
      <point x="243" y="818" type="curve" smooth="yes"/>
      <point x="246" y="847"/>
      <point x="252" y="892"/>
      <point x="259" y="925" type="curve" smooth="yes"/>
      <point x="270" y="985"/>
      <point x="283" y="1033"/>
      <point x="308" y="1110" type="curve" smooth="yes"/>
      <point x="345" y="1223"/>
      <point x="358" y="1273"/>
      <point x="365" y="1334" type="curve" smooth="yes"/>
      <point x="367" y="1352"/>
      <point x="367" y="1398"/>
      <point x="365" y="1413" type="curve" smooth="yes"/>
      <point x="360" y="1451"/>
      <point x="350" y="1482"/>
      <point x="333" y="1510" type="curve" smooth="yes"/>
      <point x="300" y="1566"/>
      <point x="244" y="1603"/>
    </contour>
    <contour>
      <point x="239" y="682" type="curve" smooth="yes"/>
      <point x="238" y="694"/>
      <point x="238" y="711"/>
      <point x="238" y="719" type="curve" smooth="yes"/>
      <point x="238" y="734" type="line"/>
      <point x="236" y="718" type="line" smooth="yes"/>
      <point x="228" y="649"/>
      <point x="208" y="577"/>
      <point x="180" y="513" type="curve" smooth="yes"/>
      <point x="166" y="483"/>
      <point x="151" y="453"/>
      <point x="113" y="386" type="curve" smooth="yes"/>
      <point x="85" y="336"/>
      <point x="74" y="316"/>
      <point x="62" y="293" type="curve" smooth="yes"/>
      <point x="35" y="237"/>
      <point x="21" y="194"/>
      <point x="14" y="149" type="curve" smooth="yes"/>
      <point x="12" y="132"/>
      <point x="12" y="94"/>
      <point x="14" y="78" type="curve" smooth="yes"/>
      <point x="22" y="26"/>
      <point x="43" y="-27"/>
      <point x="73" y="-67" type="curve" smooth="yes"/>
      <point x="123" y="-135"/>
      <point x="197" y="-177"/>
      <point x="284" y="-190" type="curve"/>
      <point x="311" y="-193"/>
      <point x="352" y="-192"/>
      <point x="381" y="-188" type="curve" smooth="yes"/>
      <point x="394" y="-186"/>
      <point x="392" y="-187"/>
      <point x="405" y="-169" type="curve" smooth="yes"/>
      <point x="439" y="-125"/>
      <point x="462" y="-65"/>
      <point x="467" y="-10" type="curve" smooth="yes"/>
      <point x="472" y="43"/>
      <point x="460" y="100"/>
      <point x="430" y="167" type="curve" smooth="yes"/>
      <point x="416" y="198"/>
      <point x="403" y="223"/>
      <point x="366" y="289" type="curve"/>
      <point x="325" y="359"/>
      <point x="311" y="387"/>
      <point x="296" y="423" type="curve" smooth="yes"/>
      <point x="262" y="502"/>
      <point x="243" y="587"/>
    </contour>
  </outline>
</glyph>
<glyph name="P" format="1">
  <advance width="650"/>
  <unicode hex="0050"/>
  <outline>
    <contour>
      <point x="106" y="1600" type="line" smooth="yes"/>
      <point x="153" y="1627"/>
      <point x="193" y="1650"/>
      <point x="193" y="1650" type="curve" smooth="yes"/>
      <point x="194" y="1650"/>
      <point x="202" y="1646"/>
      <point x="211" y="1642" type="curve" smooth="yes"/>
      <point x="312" y="1593"/>
      <point x="391" y="1515"/>
      <point x="441" y="1414" type="curve" smooth="yes"/>
      <point x="468" y="1359"/>
      <point x="484" y="1303"/>
      <point x="490" y="1237" type="curve" smooth="yes"/>
      <point x="492" y="1218"/>
      <point x="492" y="1164"/>
      <point x="490" y="1144" type="curve" smooth="yes"/>
      <point x="483" y="1080"/>
      <point x="466" y="1024"/>
      <point x="438" y="968" type="curve" smooth="yes"/>
      <point x="399" y="891"/>
      <point x="341" y="826"/>
      <point x="269" y="778" type="curve" smooth="yes"/>
      <point x="259" y="771"/>
      <point x="238" y="758"/>
      <point x="222" y="749" type="curve" smooth="yes"/>
      <point x="193" y="733" type="line"/>
      <point x="193" y="391" type="line"/>
      <point x="193" y="50" type="line"/>
      <point x="107" y="0" type="line" smooth="yes"/>
      <point x="59" y="-27"/>
      <point x="20" y="-49"/>
      <point x="20" y="-50" type="curve"/>
      <point x="19" y="-50"/>
      <point x="19" y="310"/>
      <point x="19" y="750" type="curve" smooth="yes"/>
      <point x="19" y="1550" type="line"/>
    </contour>
    <contour>
      <point x="207" y="1406" type="curve" smooth="yes"/>
      <point x="202" y="1413"/>
      <point x="197" y="1419"/>
      <point x="195" y="1421" type="curve" smooth="yes"/>
      <point x="193" y="1424" type="line"/>
      <point x="193" y="1093" type="line"/>
      <point x="193" y="763" type="line"/>
      <point x="195" y="765" type="line"/>
      <point x="206" y="778"/>
      <point x="218" y="793"/>
      <point x="225" y="803" type="curve" smooth="yes"/>
      <point x="264" y="857"/>
      <point x="291" y="919"/>
      <point x="306" y="984" type="curve" smooth="yes"/>
      <point x="318" y="1040"/>
      <point x="321" y="1099"/>
      <point x="314" y="1155" type="curve" smooth="yes"/>
      <point x="302" y="1248"/>
      <point x="265" y="1335"/>
    </contour>
  </outline>
</glyph>
<glyph name="Q" format="1">
  <advance width="680"/>
  <unicode hex="0051"/>
  <outline>
    <contour>
      <point x="303" y="1889" type="curve" smooth="yes"/>
      <point x="318" y="1890"/>
      <point x="349" y="1889"/>
      <point x="365" y="1887" type="curve" smooth="yes"/>
      <point x="482" y="1874"/>
      <point x="576" y="1804"/>
      <point x="619" y="1698" type="curve" smooth="yes"/>
      <point x="651" y="1620"/>
      <point x="651" y="1548"/>
      <point x="618" y="1461" type="curve" smooth="yes"/>
      <point x="602" y="1419"/>
      <point x="584" y="1382"/>
      <point x="534" y="1296" type="curve" smooth="yes"/>
      <point x="493" y="1225"/>
      <point x="475" y="1191"/>
      <point x="459" y="1155" type="curve" smooth="yes"/>
      <point x="398" y="1013"/>
      <point x="381" y="855"/>
      <point x="410" y="704" type="curve" smooth="yes"/>
      <point x="411" y="698"/>
      <point x="412" y="693"/>
      <point x="413" y="692" type="curve" smooth="yes"/>
      <point x="413" y="691"/>
      <point x="417" y="687"/>
      <point x="423" y="684" type="curve"/>
      <point x="437" y="674"/>
      <point x="458" y="658"/>
      <point x="473" y="645" type="curve" smooth="yes"/>
      <point x="489" y="632"/>
      <point x="515" y="605"/>
      <point x="528" y="590" type="curve" smooth="yes"/>
      <point x="609" y="496"/>
      <point x="655" y="384"/>
      <point x="663" y="262" type="curve" smooth="yes"/>
      <point x="666" y="217"/>
      <point x="662" y="165"/>
      <point x="653" y="119" type="curve" smooth="yes"/>
      <point x="648" y="94"/>
      <point x="643" y="74"/>
      <point x="629" y="31" type="curve" smooth="yes"/>
      <point x="616" y="-10"/>
      <point x="596" y="-47"/>
      <point x="571" y="-78" type="curve" smooth="yes"/>
      <point x="567" y="-83"/>
      <point x="561" y="-90"/>
      <point x="557" y="-95" type="curve" smooth="yes"/>
      <point x="545" y="-111"/>
      <point x="528" y="-130"/>
      <point x="513" y="-145" type="curve" smooth="yes"/>
      <point x="482" y="-176"/>
      <point x="487" y="-173"/>
      <point x="394" y="-226" type="curve" smooth="yes"/>
      <point x="348" y="-253"/>
      <point x="309" y="-275"/>
      <point x="308" y="-276" type="curve" smooth="yes"/>
      <point x="307" y="-277"/>
      <point x="309" y="-274"/>
      <point x="314" y="-270" type="curve" smooth="yes"/>
      <point x="325" y="-260"/>
      <point x="363" y="-221"/>
      <point x="363" y="-220" type="curve"/>
      <point x="362" y="-220"/>
      <point x="350" y="-227"/>
      <point x="335" y="-236" type="curve" smooth="yes"/>
      <point x="305" y="-253"/>
      <point x="286" y="-263"/>
      <point x="269" y="-269" type="curve" smooth="yes"/>
      <point x="211" y="-290"/>
      <point x="148" y="-295"/>
      <point x="87" y="-283" type="curve" smooth="yes"/>
      <point x="-26" y="-260"/>
      <point x="-112" y="-184"/>
      <point x="-148" y="-73" type="curve" smooth="yes"/>
      <point x="-179" y="22"/>
      <point x="-163" y="109"/>
      <point x="-89" y="242" type="curve" smooth="yes"/>
      <point x="-84" y="251"/>
      <point x="-68" y="280"/>
      <point x="-54" y="304" type="curve" smooth="yes"/>
      <point x="-13" y="375"/>
      <point x="5" y="409"/>
      <point x="21" y="446" type="curve" smooth="yes"/>
      <point x="106" y="642"/>
      <point x="105" y="866"/>
      <point x="18" y="1061" type="curve" smooth="yes"/>
      <point x="3" y="1095"/>
      <point x="-16" y="1131"/>
      <point x="-55" y="1198" type="curve" smooth="yes"/>
      <point x="-108" y="1288"/>
      <point x="-128" y="1331"/>
      <point x="-144" y="1377" type="curve" smooth="yes"/>
      <point x="-171" y="1457"/>
      <point x="-169" y="1523"/>
      <point x="-139" y="1597" type="curve" smooth="yes"/>
      <point x="-115" y="1656"/>
      <point x="-73" y="1706"/>
      <point x="-21" y="1739" type="curve" smooth="yes"/>
      <point x="0" y="1753"/>
      <point x="173" y="1852"/>
      <point x="187" y="1858" type="curve" smooth="yes"/>
      <point x="223" y="1875"/>
      <point x="262" y="1886"/>
    </contour>
    <contour>
      <point x="182" y="1788" type="curve" smooth="yes"/>
      <point x="171" y="1789"/>
      <point x="138" y="1789"/>
      <point x="127" y="1788" type="curve" smooth="yes"/>
      <point x="120" y="1788"/>
      <point x="100" y="1785"/>
      <point x="93" y="1784" type="curve" smooth="yes"/>
      <point x="87" y="1783" type="line"/>
      <point x="79" y="1773" type="line" smooth="yes"/>
      <point x="57" y="1745"/>
      <point x="38" y="1710"/>
      <point x="26" y="1673" type="curve" smooth="yes"/>
      <point x="5" y="1608"/>
      <point x="6" y="1547"/>
      <point x="31" y="1474" type="curve" smooth="yes"/>
      <point x="46" y="1429"/>
      <point x="67" y="1389"/>
      <point x="119" y="1300" type="curve"/>
      <point x="148" y="1248"/>
      <point x="159" y="1230"/>
      <point x="170" y="1207" type="curve" smooth="yes"/>
      <point x="209" y="1133"/>
      <point x="234" y="1058"/>
      <point x="247" y="977" type="curve"/>
      <point x="251" y="958" type="line"/>
      <point x="253" y="968" type="line"/>
      <point x="258" y="982"/>
      <point x="268" y="1013"/>
      <point x="275" y="1031" type="curve" smooth="yes"/>
      <point x="294" y="1078"/>
      <point x="311" y="1113"/>
      <point x="356" y="1190" type="curve" smooth="yes"/>
      <point x="415" y="1292"/>
      <point x="435" y="1331"/>
      <point x="451" y="1380" type="curve" smooth="yes"/>
      <point x="470" y="1437"/>
      <point x="474" y="1488"/>
      <point x="463" y="1539" type="curve" smooth="yes"/>
      <point x="453" y="1587"/>
      <point x="430" y="1637"/>
      <point x="399" y="1675" type="curve" smooth="yes"/>
      <point x="390" y="1687"/>
      <point x="366" y="1711"/>
      <point x="353" y="1721" type="curve" smooth="yes"/>
      <point x="305" y="1759"/>
      <point x="246" y="1782"/>
    </contour>
    <contour>
      <point x="229" y="596" type="line" smooth="yes"/>
      <point x="224" y="599"/>
      <point x="219" y="602"/>
      <point x="218" y="602" type="curve"/>
      <point x="218" y="603"/>
      <point x="217" y="602"/>
      <point x="216" y="599" type="curve" smooth="yes"/>
      <point x="215" y="597"/>
      <point x="212" y="588"/>
      <point x="209" y="580" type="curve" smooth="yes"/>
      <point x="190" y="529"/>
      <point x="171" y="491"/>
      <point x="124" y="411" type="curve"/>
      <point x="65" y="308"/>
      <point x="45" y="269"/>
      <point x="29" y="220" type="curve" smooth="yes"/>
      <point x="10" y="163"/>
      <point x="6" y="112"/>
      <point x="17" y="61" type="curve" smooth="yes"/>
      <point x="27" y="13"/>
      <point x="50" y="-37"/>
      <point x="81" y="-75" type="curve" smooth="yes"/>
      <point x="90" y="-87"/>
      <point x="114" y="-111"/>
      <point x="127" y="-121" type="curve" smooth="yes"/>
      <point x="176" y="-159"/>
      <point x="235" y="-183"/>
      <point x="300" y="-188" type="curve" smooth="yes"/>
      <point x="325" y="-190"/>
      <point x="361" y="-188"/>
      <point x="386" y="-184" type="curve" smooth="yes"/>
      <point x="393" y="-183"/>
      <point x="393" y="-183"/>
      <point x="408" y="-159" type="curve" smooth="yes"/>
      <point x="432" y="-121"/>
      <point x="457" y="-69"/>
      <point x="463" y="-40" type="curve" smooth="yes"/>
      <point x="474" y="10"/>
      <point x="470" y="65"/>
      <point x="449" y="126" type="curve" smooth="yes"/>
      <point x="434" y="171"/>
      <point x="413" y="211"/>
      <point x="361" y="301" type="curve" smooth="yes"/>
      <point x="332" y="352"/>
      <point x="321" y="370"/>
      <point x="310" y="393" type="curve" smooth="yes"/>
      <point x="279" y="452"/>
      <point x="257" y="511"/>
      <point x="242" y="574" type="curve"/>
      <point x="239" y="590" type="line"/>
    </contour>
  </outline>
</glyph>
<glyph name="S" format="1">
  <advance width="620"/>
  <unicode hex="0053"/>
  <outline>
    <contour>
      <point x="259" y="2210" type="curve" smooth="yes"/>
      <point x="282" y="2211"/>
      <point x="290" y="2211"/>
      <point x="312" y="2210" type="curve" smooth="yes"/>
      <point x="345" y="2208"/>
      <point x="370" y="2205"/>
      <point x="399" y="2200" type="curve" smooth="yes"/>
      <point x="569" y="2167"/>
      <point x="702" y="2064"/>
      <point x="773" y="1910" type="curve"/>
      <point x="811" y="1830"/>
      <point x="831" y="1736"/>
      <point x="833" y="1640" type="curve" smooth="yes"/>
      <point x="833" y="1614"/>
      <point x="833" y="1603"/>
      <point x="832" y="1590" type="curve" smooth="yes"/>
      <point x="822" y="1488"/>
      <point x="779" y="1396"/>
      <point x="709" y="1323" type="curve" smooth="yes"/>
      <point x="684" y="1298"/>
      <point x="662" y="1280"/>
      <point x="635" y="1262" type="curve" smooth="yes"/>
      <point x="619" y="1252"/>
      <point x="439" y="1148"/>
      <point x="420" y="1137" type="curve"/>
      <point x="381" y="1118"/>
      <point x="336" y="1103"/>
      <point x="294" y="1096" type="curve" smooth="yes"/>
      <point x="285" y="1094"/>
      <point x="277" y="1093"/>
      <point x="276" y="1093" type="curve" smooth="yes"/>
      <point x="275" y="1093"/>
      <point x="313" y="1116"/>
      <point x="361" y="1143" type="curve" smooth="yes"/>
      <point x="447" y="1193" type="line"/>
      <point x="464" y="1195" type="line" smooth="yes"/>
      <point x="473" y="1197"/>
      <point x="490" y="1200"/>
      <point x="501" y="1203" type="curve" smooth="yes"/>
      <point x="521" y="1208" type="line"/>
      <point x="533" y="1221" type="line"/>
      <point x="602" y="1292"/>
      <point x="643" y="1378"/>
      <point x="656" y="1475" type="curve" smooth="yes"/>
      <point x="659" y="1496"/>
      <point x="660" y="1540"/>
      <point x="658" y="1566" type="curve" smooth="yes"/>
      <point x="649" y="1700"/>
      <point x="611" y="1812"/>
      <point x="543" y="1904" type="curve" smooth="yes"/>
      <point x="517" y="1940"/>
      <point x="480" y="1976"/>
      <point x="444" y="2004" type="curve" smooth="yes"/>
      <point x="365" y="2063"/>
      <point x="270" y="2098"/>
      <point x="163" y="2108" type="curve" smooth="yes"/>
      <point x="144" y="2110"/>
      <point x="81" y="2110"/>
      <point x="63" y="2108" type="curve" smooth="yes"/>
      <point x="12" y="2103"/>
      <point x="-33" y="2094"/>
      <point x="-77" y="2080" type="curve" smooth="yes"/>
      <point x="-89" y="2076"/>
      <point x="-90" y="2075"/>
      <point x="-97" y="2069" type="curve" smooth="yes"/>
      <point x="-123" y="2046"/>
      <point x="-152" y="2013"/>
      <point x="-172" y="1982" type="curve" smooth="yes"/>
      <point x="-235" y="1886"/>
      <point x="-258" y="1768"/>
      <point x="-238" y="1644" type="curve" smooth="yes"/>
      <point x="-229" y="1589"/>
      <point x="-205" y="1536"/>
      <point x="-166" y="1485" type="curve" smooth="yes"/>
      <point x="-151" y="1465"/>
      <point x="-136" y="1448"/>
      <point x="-112" y="1424" type="curve" smooth="yes"/>
      <point x="-79" y="1391"/>
      <point x="-59" y="1373"/>
      <point x="21" y="1307" type="curve" smooth="yes"/>
      <point x="121" y="1224"/>
      <point x="161" y="1184"/>
      <point x="210" y="1117" type="curve" smooth="yes"/>
      <point x="243" y="1072"/>
      <point x="269" y="1030"/>
      <point x="327" y="930" type="curve"/>
      <point x="391" y="817"/>
      <point x="415" y="779"/>
      <point x="454" y="727" type="curve"/>
      <point x="484" y="685"/>
      <point x="512" y="652"/>
      <point x="585" y="569" type="curve" smooth="yes"/>
      <point x="659" y="485"/>
      <point x="689" y="448"/>
      <point x="720" y="406" type="curve" smooth="yes"/>
      <point x="795" y="302"/>
      <point x="831" y="216"/>
      <point x="836" y="123" type="curve" smooth="yes"/>
      <point x="839" y="69"/>
      <point x="828" y="1"/>
      <point x="806" y="-58" type="curve" smooth="yes"/>
      <point x="771" y="-155"/>
      <point x="707" y="-234"/>
      <point x="620" y="-291" type="curve" smooth="yes"/>
      <point x="601" y="-304"/>
      <point x="415" y="-411"/>
      <point x="396" y="-420" type="curve" smooth="yes"/>
      <point x="334" y="-452"/>
      <point x="269" y="-470"/>
      <point x="194" y="-477" type="curve" smooth="yes"/>
      <point x="176" y="-479"/>
      <point x="112" y="-479"/>
      <point x="95" y="-477" type="curve" smooth="yes"/>
      <point x="33" y="-471"/>
      <point x="-18" y="-459"/>
      <point x="-69" y="-439" type="curve" smooth="yes"/>
      <point x="-227" y="-376"/>
      <point x="-346" y="-246"/>
      <point x="-406" y="-73" type="curve" smooth="yes"/>
      <point x="-427" y="-11"/>
      <point x="-436" y="38"/>
      <point x="-437" y="99" type="curve" smooth="yes"/>
      <point x="-437" y="130"/>
      <point x="-436" y="150"/>
      <point x="-433" y="177" type="curve" smooth="yes"/>
      <point x="-424" y="246"/>
      <point x="-401" y="315"/>
      <point x="-366" y="377" type="curve" smooth="yes"/>
      <point x="-357" y="394"/>
      <point x="-335" y="427"/>
      <point x="-324" y="441" type="curve" smooth="yes"/>
      <point x="-283" y="493"/>
      <point x="-233" y="538"/>
      <point x="-179" y="571" type="curve" smooth="yes"/>
      <point x="-156" y="585"/>
      <point x="17" y="685"/>
      <point x="32" y="692" type="curve" smooth="yes"/>
      <point x="62" y="708"/>
      <point x="97" y="722"/>
      <point x="130" y="731" type="curve" smooth="yes"/>
      <point x="138" y="733"/>
      <point x="144" y="735"/>
      <point x="145" y="735" type="curve"/>
      <point x="145" y="734"/>
      <point x="106" y="712"/>
      <point x="59" y="685" type="curve" smooth="yes"/>
      <point x="-26" y="635" type="line"/>
      <point x="-38" y="632" type="line" smooth="yes"/>
      <point x="-45" y="630"/>
      <point x="-56" y="627"/>
      <point x="-62" y="625" type="curve" smooth="yes"/>
      <point x="-75" y="621" type="line"/>
      <point x="-87" y="610" type="line" smooth="yes"/>
      <point x="-181" y="524"/>
      <point x="-243" y="404"/>
      <point x="-259" y="277" type="curve" smooth="yes"/>
      <point x="-270" y="184"/>
      <point x="-258" y="95"/>
      <point x="-222" y="1" type="curve" smooth="yes"/>
      <point x="-195" y="-68"/>
      <point x="-158" y="-130"/>
      <point x="-114" y="-181" type="curve" smooth="yes"/>
      <point x="-100" y="-197"/>
      <point x="-65" y="-233"/>
      <point x="-49" y="-246" type="curve" smooth="yes"/>
      <point x="38" y="-319"/>
      <point x="140" y="-362"/>
      <point x="254" y="-375" type="curve" smooth="yes"/>
      <point x="332" y="-384"/>
      <point x="418" y="-376"/>
      <point x="490" y="-352" type="curve"/>
      <point x="504" y="-348" type="line"/>
      <point x="523" y="-329" type="line" smooth="yes"/>
      <point x="548" y="-304"/>
      <point x="565" y="-284"/>
      <point x="584" y="-255" type="curve" smooth="yes"/>
      <point x="630" y="-186"/>
      <point x="658" y="-100"/>
      <point x="662" y="-15" type="curve" smooth="yes"/>
      <point x="666" y="70"/>
      <point x="641" y="158"/>
      <point x="585" y="248" type="curve" smooth="yes"/>
      <point x="547" y="308"/>
      <point x="508" y="358"/>
      <point x="411" y="469" type="curve" smooth="yes"/>
      <point x="338" y="552"/>
      <point x="306" y="589"/>
      <point x="276" y="630" type="curve" smooth="yes"/>
      <point x="241" y="678"/>
      <point x="214" y="720"/>
      <point x="154" y="826" type="curve" smooth="yes"/>
      <point x="105" y="912"/>
      <point x="83" y="949"/>
      <point x="56" y="988" type="curve" smooth="yes"/>
      <point x="6" y="1062"/>
      <point x="-39" y="1111"/>
      <point x="-122" y="1181" type="curve" smooth="yes"/>
      <point x="-133" y="1190"/>
      <point x="-159" y="1211"/>
      <point x="-179" y="1228" type="curve" smooth="yes"/>
      <point x="-222" y="1264"/>
      <point x="-243" y="1282"/>
      <point x="-269" y="1306" type="curve" smooth="yes"/>
      <point x="-353" y="1385"/>
      <point x="-398" y="1460"/>
      <point x="-412" y="1543" type="curve" smooth="yes"/>
      <point x="-425" y="1620"/>
      <point x="-420" y="1698"/>
      <point x="-399" y="1768" type="curve" smooth="yes"/>
      <point x="-368" y="1870"/>
      <point x="-298" y="1960"/>
      <point x="-202" y="2021" type="curve" smooth="yes"/>
      <point x="-176" y="2037"/>
      <point x="-2" y="2137"/>
      <point x="21" y="2149" type="curve" smooth="yes"/>
      <point x="93" y="2185"/>
      <point x="174" y="2206"/>
    </contour>
  </outline>
</glyph>
<glyph name="T" format="1">
  <advance width="530"/>
  <unicode hex="0054"/>
  <outline>
    <contour>
      <point x="16" y="1601" type="line"/>
      <point x="103" y="1651" type="line"/>
      <point x="252" y="1651" type="line" smooth="yes"/>
      <point x="349" y="1651"/>
      <point x="401" y="1651"/>
      <point x="400" y="1650" type="curve" smooth="yes"/>
      <point x="399" y="1649"/>
      <point x="366" y="1630"/>
      <point x="325" y="1607" type="curve" smooth="yes"/>
      <point x="252" y="1565" type="line"/>
      <point x="252" y="807" type="line"/>
      <point x="252" y="50" type="line"/>
      <point x="165" y="0" type="line"/>
      <point x="79" y="-50" type="line"/>
      <point x="78" y="750" type="line"/>
      <point x="78" y="1550" type="line"/>
      <point x="3" y="1550" type="line"/>
      <point x="-71" y="1551" type="line"/>
    </contour>
  </outline>
</glyph>
<glyph name="U" format="1">
  <advance width="680"/>
  <unicode hex="0055"/>
  <outline>
    <contour>
      <point x="91" y="1600" type="line" smooth="yes"/>
      <point x="138" y="1627"/>
      <point x="178" y="1650"/>
      <point x="178" y="1650" type="curve"/>
      <point x="178" y="1079" type="line"/>
      <point x="178" y="508" type="line"/>
      <point x="169" y="501" type="line" smooth="yes"/>
      <point x="158" y="492"/>
      <point x="140" y="475"/>
      <point x="130" y="463" type="curve" smooth="yes"/>
      <point x="106" y="434"/>
      <point x="86" y="395"/>
      <point x="79" y="359" type="curve" smooth="yes"/>
      <point x="74" y="338"/>
      <point x="73" y="329"/>
      <point x="74" y="305" type="curve" smooth="yes"/>
      <point x="74" y="281"/>
      <point x="75" y="270"/>
      <point x="80" y="249" type="curve" smooth="yes"/>
      <point x="101" y="151"/>
      <point x="177" y="76"/>
      <point x="272" y="56" type="curve"/>
      <point x="296" y="52"/>
      <point x="328" y="50"/>
      <point x="350" y="52" type="curve"/>
      <point x="357" y="52" type="line"/>
      <point x="364" y="63" type="line" smooth="yes"/>
      <point x="385" y="95"/>
      <point x="399" y="132"/>
      <point x="405" y="172" type="curve" smooth="yes"/>
      <point x="407" y="188"/>
      <point x="407" y="224"/>
      <point x="405" y="241" type="curve" smooth="yes"/>
      <point x="398" y="286"/>
      <point x="380" y="327"/>
      <point x="351" y="362" type="curve" smooth="yes"/>
      <point x="341" y="374"/>
      <point x="322" y="392"/>
      <point x="311" y="402" type="curve"/>
      <point x="303" y="408" type="line"/>
      <point x="303" y="979" type="line"/>
      <point x="303" y="1550" type="line"/>
      <point x="390" y="1600" type="line"/>
      <point x="477" y="1650" type="line"/>
      <point x="477" y="1079" type="line"/>
      <point x="477" y="508" type="line"/>
      <point x="484" y="502" type="line"/>
      <point x="538" y="459"/>
      <point x="569" y="407"/>
      <point x="579" y="341" type="curve" smooth="yes"/>
      <point x="581" y="324"/>
      <point x="581" y="286"/>
      <point x="578" y="268" type="curve" smooth="yes"/>
      <point x="566" y="194"/>
      <point x="525" y="129"/>
      <point x="466" y="91" type="curve" smooth="yes"/>
      <point x="450" y="81"/>
      <point x="277" y="-19"/>
      <point x="264" y="-25" type="curve" smooth="yes"/>
      <point x="230" y="-42"/>
      <point x="194" y="-49"/>
      <point x="153" y="-49" type="curve" smooth="yes"/>
      <point x="108" y="-49"/>
      <point x="70" y="-40"/>
      <point x="33" y="-21" type="curve" smooth="yes"/>
      <point x="-31" y="13"/>
      <point x="-78" y="76"/>
      <point x="-94" y="148" type="curve" smooth="yes"/>
      <point x="-99" y="171"/>
      <point x="-100" y="180"/>
      <point x="-100" y="206" type="curve" smooth="yes"/>
      <point x="-100" y="228"/>
      <point x="-100" y="232"/>
      <point x="-98" y="246" type="curve" smooth="yes"/>
      <point x="-90" y="289"/>
      <point x="-73" y="326"/>
      <point x="-46" y="360" type="curve" smooth="yes"/>
      <point x="-37" y="371"/>
      <point x="-17" y="392"/>
      <point x="-5" y="401" type="curve" smooth="yes"/>
      <point x="4" y="408" type="line"/>
      <point x="4" y="979" type="line"/>
      <point x="4" y="1550" type="line"/>
    </contour>
  </outline>
</glyph>
<glyph name="V" format="1">
  <advance width="530"/>
  <unicode hex="0056"/>
  <outline>
    <contour>
      <point x="15" y="1600" type="curve" smooth="yes"/>
      <point x="63" y="1627"/>
      <point x="102" y="1650"/>
      <point x="102" y="1650" type="curve" smooth="yes"/>
      <point x="103" y="1650"/>
      <point x="103" y="1649"/>
      <point x="103" y="1649" type="curve" smooth="yes"/>
      <point x="103" y="1648"/>
      <point x="118" y="1487"/>
      <point x="136" y="1291" type="curve" smooth="yes"/>
      <point x="159" y="1051"/>
      <point x="170" y="935"/>
      <point x="170" y="938" type="curve" smooth="yes"/>
      <point x="171" y="941"/>
      <point x="184" y="1079"/>
      <point x="199" y="1246" type="curve" smooth="yes"/>
      <point x="227" y="1550" type="line"/>
      <point x="314" y="1600" type="line" smooth="yes"/>
      <point x="390" y="1644"/>
      <point x="401" y="1649"/>
      <point x="401" y="1648" type="curve" smooth="yes"/>
      <point x="401" y="1645"/>
      <point x="254" y="63"/>
      <point x="252" y="55" type="curve"/>
      <point x="252" y="50" type="line"/>
      <point x="165" y="0" type="line"/>
      <point x="79" y="-50" type="line"/>
      <point x="78" y="-45" type="line" smooth="yes"/>
      <point x="77" y="-43"/>
      <point x="44" y="316"/>
      <point x="3" y="752" type="curve" smooth="yes"/>
      <point x="-38" y="1188"/>
      <point x="-71" y="1546"/>
      <point x="-71" y="1547" type="curve" smooth="yes"/>
      <point x="-72" y="1550"/>
      <point x="-67" y="1552"/>
    </contour>
  </outline>
</glyph>
<glyph name="W" format="1">
  <advance width="790"/>
  <unicode hex="0057"/>
  <outline>
    <contour>
      <point x="45" y="1600" type="line" smooth="yes"/>
      <point x="93" y="1627"/>
      <point x="132" y="1650"/>
      <point x="132" y="1650" type="curve" smooth="yes"/>
      <point x="133" y="1650"/>
      <point x="133" y="1648"/>
      <point x="133" y="1645" type="curve" smooth="yes"/>
      <point x="133" y="1637"/>
      <point x="177" y="694"/>
      <point x="178" y="685" type="curve" smooth="yes"/>
      <point x="179" y="676" type="line"/>
      <point x="198" y="687" type="line" smooth="yes"/>
      <point x="208" y="693"/>
      <point x="217" y="698"/>
      <point x="217" y="698" type="curve" smooth="yes"/>
      <point x="218" y="698"/>
      <point x="227" y="890"/>
      <point x="238" y="1124" type="curve" smooth="yes"/>
      <point x="257" y="1550" type="line"/>
      <point x="344" y="1600" type="line" smooth="yes"/>
      <point x="391" y="1627"/>
      <point x="430" y="1650"/>
      <point x="431" y="1650" type="curve" smooth="yes"/>
      <point x="431" y="1650"/>
      <point x="358" y="60"/>
      <point x="357" y="53" type="curve" smooth="yes"/>
      <point x="357" y="50"/>
      <point x="349" y="46"/>
      <point x="270" y="0" type="curve" smooth="yes"/>
      <point x="222" y="-27"/>
      <point x="183" y="-50"/>
      <point x="183" y="-50" type="curve" smooth="yes"/>
      <point x="183" y="-49"/>
      <point x="181" y="-31"/>
      <point x="179" y="-10" type="curve" smooth="yes"/>
      <point x="176" y="12"/>
      <point x="174" y="30"/>
      <point x="174" y="31" type="curve" smooth="yes"/>
      <point x="174" y="31"/>
      <point x="142" y="13"/>
      <point x="103" y="-10" type="curve" smooth="yes"/>
      <point x="34" y="-50" type="line"/>
      <point x="33" y="-40" type="line" smooth="yes"/>
      <point x="32" y="-35"/>
      <point x="16" y="323"/>
      <point x="-5" y="755" type="curve" smooth="yes"/>
      <point x="-25" y="1186"/>
      <point x="-41" y="1542"/>
      <point x="-41" y="1545" type="curve" smooth="yes"/>
      <point x="-41" y="1550" type="line"/>
    </contour>
  </outline>
</glyph>
<glyph name="X" format="1">
  <advance width="590"/>
  <unicode hex="0058"/>
  <outline>
    <contour>
      <point x="46" y="1600" type="curve" smooth="yes"/>
      <point x="93" y="1627"/>
      <point x="132" y="1650"/>
      <point x="132" y="1650" type="curve"/>
      <point x="132" y="1650"/>
      <point x="148" y="1565"/>
      <point x="168" y="1461" type="curve" smooth="yes"/>
      <point x="187" y="1357"/>
      <point x="203" y="1271"/>
      <point x="204" y="1269" type="curve" smooth="yes"/>
      <point x="204" y="1267"/>
      <point x="212" y="1305"/>
      <point x="231" y="1408" type="curve" smooth="yes"/>
      <point x="257" y="1550" type="line"/>
      <point x="344" y="1600" type="line" smooth="yes"/>
      <point x="392" y="1627"/>
      <point x="431" y="1649"/>
      <point x="431" y="1649" type="curve" smooth="yes"/>
      <point x="431" y="1648"/>
      <point x="398" y="1468"/>
      <point x="357" y="1249" type="curve" smooth="yes"/>
      <point x="282" y="851" type="line"/>
      <point x="357" y="451" type="line" smooth="yes"/>
      <point x="404" y="197"/>
      <point x="431" y="51"/>
      <point x="430" y="50" type="curve" smooth="yes"/>
      <point x="430" y="49"/>
      <point x="258" y="-50"/>
      <point x="258" y="-50" type="curve" smooth="yes"/>
      <point x="257" y="-50"/>
      <point x="241" y="37"/>
      <point x="222" y="142" type="curve" smooth="yes"/>
      <point x="202" y="247"/>
      <point x="186" y="334"/>
      <point x="186" y="334" type="curve"/>
      <point x="186" y="334"/>
      <point x="174" y="270"/>
      <point x="159" y="192" type="curve" smooth="yes"/>
      <point x="133" y="50" type="line"/>
      <point x="46" y="0" type="line" smooth="yes"/>
      <point x="-2" y="-27"/>
      <point x="-41" y="-49"/>
      <point x="-41" y="-49" type="curve" smooth="yes"/>
      <point x="-41" y="-48"/>
      <point x="-8" y="132"/>
      <point x="33" y="351" type="curve" smooth="yes"/>
      <point x="108" y="750" type="line"/>
      <point x="33" y="1149" type="line" smooth="yes"/>
      <point x="-8" y="1368"/>
      <point x="-41" y="1548"/>
      <point x="-41" y="1549" type="curve" smooth="yes"/>
      <point x="-41" y="1550"/>
      <point x="-2" y="1573"/>
    </contour>
  </outline>
</glyph>
<glyph name="Y" format="1">
  <advance width="530"/>
  <unicode hex="0059"/>
  <outline>
    <contour>
      <point x="16" y="1600" type="curve" smooth="yes"/>
      <point x="63" y="1627"/>
      <point x="102" y="1650"/>
      <point x="102" y="1650" type="curve"/>
      <point x="102" y="1650"/>
      <point x="118" y="1554"/>
      <point x="137" y="1437" type="curve" smooth="yes"/>
      <point x="156" y="1319"/>
      <point x="172" y="1223"/>
      <point x="173" y="1222" type="curve" smooth="yes"/>
      <point x="173" y="1221"/>
      <point x="185" y="1291"/>
      <point x="200" y="1385" type="curve" smooth="yes"/>
      <point x="227" y="1550" type="line"/>
      <point x="314" y="1600" type="line" smooth="yes"/>
      <point x="362" y="1627"/>
      <point x="401" y="1649"/>
      <point x="401" y="1649" type="curve" smooth="yes"/>
      <point x="401" y="1648"/>
      <point x="368" y="1442"/>
      <point x="327" y="1191" type="curve" smooth="yes"/>
      <point x="252" y="736" type="line"/>
      <point x="252" y="393" type="line"/>
      <point x="252" y="50" type="line"/>
      <point x="165" y="0" type="line"/>
      <point x="79" y="-50" type="line"/>
      <point x="78" y="295" type="line"/>
      <point x="78" y="641" type="line"/>
      <point x="3" y="1094" type="line" smooth="yes"/>
      <point x="-38" y="1343"/>
      <point x="-71" y="1548"/>
      <point x="-71" y="1549" type="curve" smooth="yes"/>
      <point x="-71" y="1550"/>
      <point x="-35" y="1571"/>
    </contour>
  </outline>
</glyph>
<glyph name="Z" format="1">
  <advance width="590"/>
  <unicode hex="005A"/>
  <outline>
    <contour>
      <point x="46" y="1601" type="line"/>
      <point x="133" y="1651" type="line"/>
      <point x="282" y="1651" type="line" smooth="yes"/>
      <point x="416" y="1651"/>
      <point x="431" y="1651"/>
      <point x="431" y="1649" type="curve" smooth="yes"/>
      <point x="431" y="1649"/>
      <point x="364" y="1289"/>
      <point x="282" y="851" type="curve" smooth="yes"/>
      <point x="200" y="412"/>
      <point x="133" y="53"/>
      <point x="133" y="52" type="curve" smooth="yes"/>
      <point x="133" y="51"/>
      <point x="173" y="51"/>
      <point x="282" y="51" type="curve" smooth="yes"/>
      <point x="431" y="51" type="line"/>
      <point x="344" y="0" type="line"/>
      <point x="257" y="-50" type="line"/>
      <point x="108" y="-50" type="line" smooth="yes"/>
      <point x="-26" y="-50"/>
      <point x="-41" y="-50"/>
      <point x="-41" y="-48" type="curve" smooth="yes"/>
      <point x="-41" y="-48"/>
      <point x="26" y="312"/>
      <point x="108" y="750" type="curve" smooth="yes"/>
      <point x="190" y="1189"/>
      <point x="257" y="1548"/>
      <point x="257" y="1549" type="curve" smooth="yes"/>
      <point x="257" y="1550"/>
      <point x="217" y="1550"/>
      <point x="108" y="1550" type="curve" smooth="yes"/>
      <point x="-41" y="1551" type="line"/>
    </contour>
  </outline>
</glyph>
